<mxfile host="app.diagrams.net" modified="2023-08-17T03:21:37.812Z" agent="Mozilla/5.0 (Windows NT 10.0; Win64; x64) AppleWebKit/537.36 (KHTML, like Gecko) Chrome/115.0.0.0 Safari/537.36" version="21.6.8" etag="-gOF-dq9MHGUHHhk6O3i" type="github">
  <diagram name="PÃ¡gina-1" id="xYuun56eDX9xKt6eOKyI">
    <mxGraphModel>
      <root>
        <mxCell id="0" />
        <mxCell id="1" parent="0" />
      </root>
    </mxGraphModel>
  </diagram>
</mxfile>
